<?xml version="1.0" standalone="no"?>
<!DOCTYPE svg PUBLIC "-//W3C//DTD SVG 20010904//EN"
 "http://www.w3.org/TR/2001/REC-SVG-20010904/DTD/svg10.dtd">
<svg version="1.0" xmlns="http://www.w3.org/2000/svg"
 width="500.000000pt" height="500.000000pt" viewBox="0 0 500.000000 500.000000"
 preserveAspectRatio="xMidYMid meet">

<g transform="translate(0.000000,500.000000) scale(0.100000,-0.100000)"
fill="#000000" stroke="none">
<path d="M2008 4778 c-2 -27 -7 -33 -28 -35 -14 0 -31 -1 -37 -2 -8 -1 -13
-15 -13 -35 0 -32 -3 -35 -32 -38 -28 -2 -34 -8 -36 -30 -3 -24 -8 -28 -33
-28 -27 0 -29 -3 -29 -35 0 -33 -2 -35 -35 -35 -33 0 -35 -2 -35 -35 l0 -35
-70 0 -70 0 0 -34 0 -34 -65 -7 c-64 -6 -65 -7 -65 -36 0 -26 -3 -29 -35 -29
l-34 0 -3 -67 -3 -68 -35 -5 c-31 -4 -35 -9 -38 -37 -3 -29 -7 -33 -32 -33
-25 0 -29 -4 -32 -32 l-3 -33 -67 -3 -67 -3 -3 -32 -3 -32 -137 -3 -137 -3 -3
-32 c-2 -18 -9 -33 -15 -33 -7 -1 -37 -2 -67 -3 -54 -1 -55 -1 -58 -33 l-3
-33 -70 0 -70 0 -3 33 c-3 26 -7 32 -28 32 -23 0 -24 -3 -24 -59 0 -61 7 -71
51 -71 14 0 19 -7 19 -30 0 -29 1 -29 63 -32 62 -3 62 -3 65 -35 l3 -33 99 0
99 0 3 68 c3 66 3 67 31 67 22 -1 29 5 33 25 3 14 7 31 10 38 2 9 39 12 139
12 l135 0 0 -140 0 -140 35 0 35 0 0 -175 0 -175 35 0 35 0 0 -70 0 -70 40 0
40 0 0 -70 c0 -49 -4 -70 -12 -71 -7 -1 -22 -2 -33 -3 -17 -1 -20 -9 -23 -51
-5 -96 -4 -95 -77 -95 -62 0 -64 -1 -67 -27 -2 -23 -8 -29 -35 -31 l-33 -3 0
-105 0 -104 -34 0 c-32 0 -35 -3 -38 -32 -3 -29 -7 -33 -35 -36 l-32 -3 -3
-67 -3 -67 -30 0 -30 -1 -7 -114 c-8 -149 -5 -160 38 -160 32 0 34 -2 34 -35
0 -33 2 -35 34 -35 32 0 35 -3 38 -32 l3 -33 110 2 c61 1 120 2 133 2 18 1 22
7 22 31 l0 30 70 0 70 0 0 -30 c0 -25 4 -30 35 -36 30 -5 35 -10 35 -35 0 -26
3 -29 35 -29 33 0 35 -2 35 -35 0 -33 2 -35 35 -35 33 0 35 -2 35 -34 0 -32 3
-35 33 -38 l32 -3 3 -137 3 -137 -33 -3 -33 -3 -3 -67 -3 -68 -34 0 c-33 0
-35 -2 -35 -35 0 -33 -2 -35 -35 -35 l-35 0 0 -70 0 -70 -35 0 -35 0 0 -205 0
-205 30 0 30 0 0 -69 0 -70 38 -3 37 -3 3 -68 3 -67 134 0 135 0 0 35 c0 33 2
35 35 35 l35 0 0 170 0 170 35 0 34 0 3 73 3 72 33 3 32 3 0 65 0 64 30 0 29
0 3 73 3 72 38 3 37 3 0 99 0 99 33 3 32 3 3 68 c3 67 3 67 32 67 29 0 29 0
32 68 l3 67 35 0 35 0 2 -50 c1 -27 2 -58 2 -67 1 -14 10 -18 36 -18 l35 0 0
-140 0 -140 -35 0 -34 0 -3 -102 -3 -103 -32 -3 -31 -3 -7 -82 c-3 -45 -5
-120 -3 -167 l3 -85 33 -3 c29 -3 32 -6 32 -38 0 -32 2 -34 34 -34 32 0 35 -3
38 -32 l3 -33 103 -3 102 -3 0 -34 0 -35 140 0 140 0 0 35 0 35 70 0 70 0 0
70 0 70 -34 0 c-32 0 -35 3 -38 33 -3 28 -7 32 -35 35 -30 3 -33 6 -33 38 0
32 -2 34 -35 34 -32 0 -35 2 -35 29 0 26 -4 30 -32 33 -30 3 -33 6 -33 38 0
32 3 35 33 38 l32 3 0 69 0 69 33 3 32 3 3 98 3 97 29 0 30 0 0 105 0 105 -30
0 -30 0 0 65 0 65 -35 0 c-33 0 -35 2 -35 34 0 32 -3 35 -32 38 -29 3 -33 7
-36 36 -3 29 -6 32 -36 32 l-34 0 -7 66 c-4 36 -4 69 0 72 4 4 129 7 278 7
l272 0 3 33 c3 31 5 32 50 34 26 0 52 2 57 3 6 2 45 3 87 4 l77 1 3 33 3 32
72 3 72 3 3 32 3 32 133 3 132 3 0 29 c0 29 0 29 68 32 l67 3 5 35 c4 30 8 34
35 35 30 0 30 0 31 61 2 75 7 84 46 84 30 0 30 1 24 38 -3 20 -6 92 -6 160 l0
122 -29 0 c-29 0 -41 14 -41 50 0 14 -9 20 -32 22 -30 3 -33 6 -32 35 2 29 -1
32 -30 35 -27 3 -31 7 -34 35 -3 28 -7 32 -35 35 -28 3 -32 7 -35 36 l-3 32
-165 0 c-155 0 -164 -1 -164 -19 0 -45 -9 -51 -76 -51 l-64 0 0 -29 c0 -26 -4
-30 -32 -33 l-33 -3 -3 -102 -3 -103 -34 0 -35 0 0 -105 0 -105 -69 0 -70 0
-3 -32 -3 -33 -107 -3 -108 -3 0 65 0 65 -32 3 c-30 3 -33 6 -36 41 -3 35 -5
37 -38 37 -35 0 -35 1 -32 38 3 35 5 37 41 40 35 3 38 6 35 30 -3 26 -2 27 57
30 67 4 85 14 85 48 0 20 5 24 29 24 27 0 30 3 33 38 3 34 6 37 36 40 28 3 32
7 32 32 0 25 4 29 33 32 l32 3 3 68 3 67 69 0 70 0 0 30 0 30 -70 0 -70 0 0
40 c0 39 1 40 35 40 32 0 35 2 35 30 0 28 -3 30 -35 30 -33 0 -35 2 -35 35 0
33 -2 35 -35 35 l-35 0 -2 373 c-2 204 -2 407 0 449 l3 77 32 3 32 3 0 100 0
100 -32 3 c-30 3 -33 6 -33 38 l0 35 -62 -3 c-63 -3 -63 -3 -66 -35 l-3 -33
-140 0 -139 0 0 35 0 35 -70 0 -70 0 0 30 0 30 -277 2 -278 3 -5 35 c-3 21
-11 36 -20 36 -8 1 -21 2 -27 3 -7 0 -13 14 -13 31 l0 30 -64 0 -65 0 -3 -32z
m1242 -1028 l0 -169 -72 -3 -73 -3 -3 -37 c-3 -35 -6 -38 -33 -38 l-29 0 0
-135 0 -135 70 0 70 0 0 35 c0 33 2 35 36 35 34 0 35 1 32 33 -3 28 -7 32 -35
35 l-33 3 0 65 0 64 35 0 35 0 0 -64 0 -65 33 -3 32 -3 3 -137 3 -138 -36 0
c-33 0 -35 -2 -35 -35 0 -33 -2 -35 -35 -35 -33 0 -35 -2 -35 -35 0 -33 -2
-35 -35 -35 -33 0 -35 -2 -35 -35 l0 -35 -70 0 -70 0 0 -34 c0 -33 -1 -33 -52
-40 -69 -8 -257 -8 -391 0 l-106 7 -3 31 -3 31 -107 3 -107 3 -3 32 c-3 28 -7
32 -35 35 l-33 3 0 65 c0 64 0 64 -29 64 -26 0 -29 4 -33 35 -5 43 -3 45 39
45 l33 0 0 100 0 100 -27 1 c-16 1 -31 1 -35 0 -5 0 -8 15 -8 34 0 33 -2 35
-35 35 l-35 0 2 173 3 172 68 3 67 3 0 34 0 35 128 0 c70 0 193 2 275 3 l147
2 0 -37 0 -38 210 0 210 0 0 38 c0 37 1 38 30 34 29 -4 30 -3 30 32 0 35 1 36
40 36 l40 0 0 -170z"/>
<path d="M2419 3570 c-9 -69 -7 -70 101 -70 l100 0 0 -101 0 -100 -32 3 c-29
3 -33 7 -33 33 l-1 30 -67 3 -67 3 0 -36 0 -35 65 0 65 0 0 -35 0 -35 105 0
105 0 0 135 0 135 -64 0 -65 0 -3 38 -3 37 -102 3 c-66 2 -103 -1 -104 -8z"/>
<path d="M2900 3265 c0 -33 2 -35 35 -35 33 0 35 2 35 35 0 33 -2 35 -35 35
-33 0 -35 -2 -35 -35z"/>
<path d="M2627 3153 c-4 -3 -7 -19 -7 -35 0 -25 3 -28 35 -28 33 0 35 -2 35
-35 l0 -35 208 2 207 3 3 33 c3 29 6 32 38 32 34 0 35 1 32 33 -3 28 -7 32
-35 35 -29 3 -32 1 -35 -30 l-3 -33 -207 -3 -208 -2 0 35 c0 32 -3 35 -28 35
-16 0 -32 -3 -35 -7z"/>
<path d="M3460 3400 l0 -31 63 3 c59 3 62 4 62 28 0 24 -3 25 -62 28 l-63 3 0
-31z"/>
<path d="M3530 3260 c0 -27 3 -30 30 -30 27 0 30 3 30 30 0 27 -3 30 -30 30
-27 0 -30 -3 -30 -30z"/>
</g>
</svg>
